<?xml version="1.0" standalone="no"?>
<!DOCTYPE svg PUBLIC "-//W3C//DTD SVG 20010904//EN"
 "http://www.w3.org/TR/2001/REC-SVG-20010904/DTD/svg10.dtd">
<svg version="1.0" xmlns="http://www.w3.org/2000/svg"
 width="620.000000pt" height="620.000000pt" viewBox="0 0 620.000000 620.000000"
 preserveAspectRatio="xMidYMid meet">
<metadata>
Created by potrace 1.11, written by Peter Selinger 2001-2013
</metadata>
<g transform="translate(0.000000,620.000000) scale(0.100000,-0.100000)"
fill="#000000" stroke="none">
<path d="M3067 6194 c-1 -1 -60 -4 -132 -8 -71 -4 -143 -9 -160 -11 -16 -2
-50 -6 -75 -10 -25 -3 -70 -9 -100 -15 -30 -5 -68 -12 -85 -15 -147 -25 -393
-96 -530 -152 -33 -13 -73 -30 -90 -36 -66 -27 -273 -131 -354 -179 -342 -202
-657 -478 -883 -775 -32 -43 -64 -85 -71 -93 -7 -8 -46 -67 -87 -130 -73 -112
-275 -499 -265 -508 3 -3 1 -10 -4 -16 -12 -15 -76 -200 -106 -306 -50 -179
-94 -424 -110 -620 -6 -81 -7 -370 0 -435 2 -22 7 -74 11 -115 4 -41 8 -82 10
-90 1 -8 5 -37 9 -65 18 -137 81 -385 135 -540 181 -510 491 -968 888 -1311
42 -36 88 -76 102 -88 109 -94 345 -245 535 -341 137 -69 163 -81 275 -126
156 -61 443 -142 585 -164 22 -3 56 -8 75 -11 19 -3 46 -7 60 -10 147 -26 722
-25 803 1 7 2 35 6 64 9 28 3 57 8 65 10 7 3 31 7 53 10 53 7 229 50 335 82
265 80 572 227 810 388 619 418 1066 1038 1259 1744 33 121 59 238 66 297 3
22 7 47 10 55 2 8 7 40 10 70 3 30 8 73 11 95 10 72 12 498 4 580 -13 124 -20
181 -25 206 -3 13 -7 41 -10 64 -19 128 -89 385 -150 545 -47 125 -41 112
-129 292 -295 601 -793 1100 -1396 1397 -130 64 -330 148 -400 167 -8 2 -60
17 -115 34 -55 16 -145 39 -200 51 -147 31 -144 30 -255 44 -30 4 -66 8 -80
11 -32 5 -359 21 -363 18z"/>
</g>
</svg>
